<?xml version="1.0" standalone="no"?>
<!DOCTYPE svg PUBLIC "-//W3C//DTD SVG 20010904//EN"
 "http://www.w3.org/TR/2001/REC-SVG-20010904/DTD/svg10.dtd">
<svg version="1.0" xmlns="http://www.w3.org/2000/svg"
 width="512.000000pt" height="512.000000pt" viewBox="0 0 512.000000 512.000000"
 preserveAspectRatio="xMidYMid meet">

<g transform="translate(0.000000,512.000000) scale(0.100000,-0.100000)"
fill="#000000" stroke="none">
<path d="M752 5110 c-152 -32 -291 -161 -345 -323 -21 -60 -22 -85 -27 -692
l-6 -630 -31 -115 c-17 -63 -37 -151 -44 -195 -9 -58 -20 -91 -40 -119 -68
-93 -95 -240 -65 -356 42 -165 184 -299 348 -330 28 -6 53 -12 55 -13 2 -2 16
-51 32 -108 96 -338 283 -646 548 -901 94 -90 252 -212 338 -262 28 -16 52
-30 54 -32 2 -2 -28 -37 -67 -78 -213 -225 -329 -493 -349 -808 -6 -94 -5 -97
20 -122 l26 -26 1364 0 1364 0 27 21 c24 19 26 26 26 102 0 286 -126 592 -332
812 l-88 93 75 46 c158 99 387 295 399 341 7 29 -15 79 -39 89 -39 14 -62 2
-163 -90 -680 -612 -1671 -659 -2394 -112 -457 345 -738 910 -738 1483 0 168
35 395 86 555 l25 80 394 0 393 0 22 -35 c40 -65 134 -124 228 -144 67 -14
1356 -15 1430 -1 82 15 143 49 209 117 l61 63 388 -2 387 -3 24 -70 c13 -38
35 -124 49 -190 36 -161 44 -441 20 -618 -39 -275 -130 -522 -280 -761 -31
-48 -56 -99 -56 -113 0 -29 42 -73 70 -73 37 0 57 18 108 97 113 178 205 382
254 565 23 87 23 88 58 94 224 37 380 217 380 438 0 91 -24 174 -72 247 -25
37 -38 71 -42 109 -8 61 -48 239 -71 314 -13 42 -15 142 -15 640 0 492 -3 601
-15 649 -45 172 -176 318 -324 361 -106 31 -184 16 -304 -56 -63 -38 -78 -43
-131 -43 -38 0 -73 6 -91 16 -16 9 -55 31 -86 48 -119 66 -252 63 -371 -9
-126 -75 -188 -77 -306 -5 -130 77 -258 82 -381 14 -31 -17 -69 -39 -86 -48
-18 -10 -53 -16 -91 -16 -52 0 -69 6 -130 42 -90 53 -134 67 -219 67 -83 0
-128 -14 -214 -65 -35 -21 -82 -41 -105 -44 -49 -8 -119 9 -158 36 -136 98
-288 100 -442 6 -62 -37 -77 -42 -130 -42 -44 0 -72 6 -101 22 -153 84 -221
102 -313 83z m101 -149 c22 -5 64 -25 95 -44 143 -88 281 -88 424 0 106 65
173 64 293 -6 81 -48 157 -66 239 -57 57 6 104 24 209 82 65 37 139 37 204 0
198 -109 304 -114 457 -21 110 66 180 66 284 2 143 -88 281 -88 424 0 62 38
124 56 166 48 15 -4 72 -29 127 -56 159 -80 265 -78 409 7 42 25 94 48 116 51
80 11 188 -56 243 -150 49 -83 57 -134 57 -359 l0 -208 -531 0 -530 0 -51 55
c-32 36 -73 66 -116 87 l-67 33 -714 3 c-632 2 -720 1 -769 -13 -71 -21 -151
-72 -192 -123 l-32 -41 -234 -3 c-218 -3 -235 -4 -253 -23 -10 -11 -22 -33
-25 -48 -5 -23 -1 -34 23 -57 l29 -30 201 0 201 0 0 -260 0 -260 -390 0 -390
0 0 260 0 260 65 0 c57 0 69 3 90 25 32 31 32 66 1 102 l-24 28 -176 3 -176 4
0 228 c0 207 2 235 21 284 34 92 122 177 204 197 41 10 45 10 88 0z m2452
-708 c47 -25 85 -64 111 -113 17 -32 19 -61 19 -310 0 -263 -1 -277 -22 -315
-11 -22 -34 -52 -50 -67 -63 -60 -38 -58 -800 -58 -686 0 -697 0 -740 21 -51
25 -96 76 -112 128 -14 48 -15 531 -1 581 20 71 91 135 170 151 19 4 339 6
710 6 671 -2 675 -2 715 -24z m1295 -423 l0 -260 -505 0 -505 0 0 260 0 260
505 0 505 0 0 -260z m-3955 -427 c-3 -10 -16 -53 -27 -95 -15 -57 -26 -78 -37
-78 -9 0 -40 -6 -69 -13 l-52 -14 6 26 c15 68 36 144 44 166 9 23 14 25 76 25
59 0 65 -2 59 -17z m3984 -20 c28 -107 41 -162 41 -170 0 -6 -22 -4 -52 3 -29
8 -59 14 -68 14 -11 0 -22 25 -38 88 -12 48 -22 90 -22 95 0 4 29 7 65 7 l64
0 10 -37z m-4063 -335 c-13 -44 -18 -363 -8 -453 6 -49 9 -92 6 -94 -2 -2 -23
4 -47 13 -230 88 -246 420 -25 530 65 33 82 33 74 4z m4059 8 c98 -41 175
-160 175 -270 0 -127 -85 -243 -205 -280 -20 -6 -20 -1 -20 279 0 157 4 285 8
285 4 0 23 -6 42 -14z m-1975 -2596 l0 -310 -85 0 -85 0 0 310 0 310 85 0 85
0 0 -310z m-322 -167 l3 -143 -251 0 -250 0 0 145 0 145 248 -2 247 -3 3 -142z
m980 0 l3 -143 -251 0 -250 0 0 145 0 145 248 -2 247 -3 3 -142z"/>
<path d="M1572 2994 c-21 -14 -22 -22 -22 -144 0 -120 2 -131 22 -150 42 -39
109 -16 124 44 3 14 4 70 2 124 -2 81 -7 104 -22 121 -23 25 -72 28 -104 5z"/>
<path d="M3460 2990 c-18 -18 -20 -33 -20 -143 0 -116 1 -125 23 -145 31 -29
72 -28 102 3 24 23 25 30 25 138 0 100 -3 117 -21 141 -26 33 -79 36 -109 6z"/>
<path d="M2373 2639 c-26 -9 -53 -47 -53 -73 0 -11 22 -41 50 -67 87 -85 218
-102 335 -44 111 54 142 146 61 180 -35 15 -64 7 -108 -30 -55 -46 -135 -44
-191 4 -37 32 -64 41 -94 30z"/>
</g>
</svg>
